<mxfile host="app.diagrams.net" agent="Mozilla/5.0 (Windows NT 10.0; Win64; x64) AppleWebKit/537.36 (KHTML, like Gecko) Chrome/128.0.0.0 Safari/537.36" version="24.7.14">
  <diagram name="Page-1" id="rVJDJ9Q6CeX_ugxozAAv">
    <mxGraphModel dx="957" dy="438" grid="1" gridSize="10" guides="1" tooltips="1" connect="1" arrows="1" fold="1" page="1" pageScale="1" pageWidth="827" pageHeight="1169" math="0" shadow="0">
      <root>
        <mxCell id="0" />
        <mxCell id="1" parent="0" />
        <mxCell id="SG_bVTKXQQuI8ltkkn3w-43" value="" style="edgeStyle=orthogonalEdgeStyle;rounded=0;orthogonalLoop=1;jettySize=auto;html=1;" edge="1" parent="1" source="SG_bVTKXQQuI8ltkkn3w-44" target="SG_bVTKXQQuI8ltkkn3w-46">
          <mxGeometry relative="1" as="geometry" />
        </mxCell>
        <mxCell id="SG_bVTKXQQuI8ltkkn3w-44" value="START" style="strokeWidth=2;html=1;shape=mxgraph.flowchart.terminator;whiteSpace=wrap;" vertex="1" parent="1">
          <mxGeometry x="143.06" y="30" width="100" height="60" as="geometry" />
        </mxCell>
        <mxCell id="SG_bVTKXQQuI8ltkkn3w-45" value="" style="edgeStyle=orthogonalEdgeStyle;rounded=0;orthogonalLoop=1;jettySize=auto;html=1;" edge="1" parent="1" source="SG_bVTKXQQuI8ltkkn3w-46" target="SG_bVTKXQQuI8ltkkn3w-48">
          <mxGeometry relative="1" as="geometry" />
        </mxCell>
        <mxCell id="SG_bVTKXQQuI8ltkkn3w-46" value="SizeS = 0, SizeM = 0, SizeL = 0&lt;div&gt;TotalPrice = 0.0&lt;br&gt;&lt;/div&gt;" style="whiteSpace=wrap;html=1;strokeWidth=2;" vertex="1" parent="1">
          <mxGeometry x="67.59000000000003" y="130" width="250.94" height="40" as="geometry" />
        </mxCell>
        <mxCell id="SG_bVTKXQQuI8ltkkn3w-47" value="" style="edgeStyle=orthogonalEdgeStyle;rounded=0;orthogonalLoop=1;jettySize=auto;html=1;" edge="1" parent="1" source="SG_bVTKXQQuI8ltkkn3w-48" target="SG_bVTKXQQuI8ltkkn3w-53">
          <mxGeometry relative="1" as="geometry" />
        </mxCell>
        <mxCell id="SG_bVTKXQQuI8ltkkn3w-48" value="read Weight" style="shape=parallelogram;perimeter=parallelogramPerimeter;whiteSpace=wrap;html=1;fixedSize=1;strokeWidth=2;" vertex="1" parent="1">
          <mxGeometry x="133.06" y="220" width="120" height="50" as="geometry" />
        </mxCell>
        <mxCell id="SG_bVTKXQQuI8ltkkn3w-49" value="" style="edgeStyle=orthogonalEdgeStyle;rounded=0;orthogonalLoop=1;jettySize=auto;html=1;" edge="1" parent="1" source="SG_bVTKXQQuI8ltkkn3w-53" target="SG_bVTKXQQuI8ltkkn3w-58">
          <mxGeometry relative="1" as="geometry" />
        </mxCell>
        <mxCell id="SG_bVTKXQQuI8ltkkn3w-50" value="T" style="edgeLabel;html=1;align=center;verticalAlign=middle;resizable=0;points=[];" vertex="1" connectable="0" parent="SG_bVTKXQQuI8ltkkn3w-49">
          <mxGeometry x="-0.2444" y="2" relative="1" as="geometry">
            <mxPoint as="offset" />
          </mxGeometry>
        </mxCell>
        <mxCell id="SG_bVTKXQQuI8ltkkn3w-90" style="edgeStyle=orthogonalEdgeStyle;rounded=0;orthogonalLoop=1;jettySize=auto;html=1;entryX=0.471;entryY=1.007;entryDx=0;entryDy=0;entryPerimeter=0;" edge="1" parent="1" source="SG_bVTKXQQuI8ltkkn3w-53" target="SG_bVTKXQQuI8ltkkn3w-85">
          <mxGeometry relative="1" as="geometry">
            <mxPoint x="480" y="363" as="targetPoint" />
          </mxGeometry>
        </mxCell>
        <mxCell id="SG_bVTKXQQuI8ltkkn3w-91" value="F" style="edgeLabel;html=1;align=center;verticalAlign=middle;resizable=0;points=[];" vertex="1" connectable="0" parent="SG_bVTKXQQuI8ltkkn3w-90">
          <mxGeometry x="-0.2932" relative="1" as="geometry">
            <mxPoint as="offset" />
          </mxGeometry>
        </mxCell>
        <mxCell id="SG_bVTKXQQuI8ltkkn3w-53" value="while (Weight &amp;gt; 0 &amp;amp;&amp;amp; Weight &amp;lt;= 100)" style="rhombus;whiteSpace=wrap;html=1;strokeWidth=2;" vertex="1" parent="1">
          <mxGeometry x="67.59" y="318" width="251.94" height="90" as="geometry" />
        </mxCell>
        <mxCell id="SG_bVTKXQQuI8ltkkn3w-54" value="" style="edgeStyle=orthogonalEdgeStyle;rounded=0;orthogonalLoop=1;jettySize=auto;html=1;" edge="1" parent="1" source="SG_bVTKXQQuI8ltkkn3w-58" target="SG_bVTKXQQuI8ltkkn3w-60">
          <mxGeometry relative="1" as="geometry" />
        </mxCell>
        <mxCell id="SG_bVTKXQQuI8ltkkn3w-55" value="T" style="edgeLabel;html=1;align=center;verticalAlign=middle;resizable=0;points=[];" vertex="1" connectable="0" parent="SG_bVTKXQQuI8ltkkn3w-54">
          <mxGeometry x="-0.0716" y="1" relative="1" as="geometry">
            <mxPoint as="offset" />
          </mxGeometry>
        </mxCell>
        <mxCell id="SG_bVTKXQQuI8ltkkn3w-56" value="" style="edgeStyle=orthogonalEdgeStyle;rounded=0;orthogonalLoop=1;jettySize=auto;html=1;" edge="1" parent="1" source="SG_bVTKXQQuI8ltkkn3w-58" target="SG_bVTKXQQuI8ltkkn3w-70">
          <mxGeometry relative="1" as="geometry" />
        </mxCell>
        <mxCell id="SG_bVTKXQQuI8ltkkn3w-57" value="F" style="edgeLabel;html=1;align=center;verticalAlign=middle;resizable=0;points=[];" vertex="1" connectable="0" parent="SG_bVTKXQQuI8ltkkn3w-56">
          <mxGeometry x="0.0081" y="-1" relative="1" as="geometry">
            <mxPoint as="offset" />
          </mxGeometry>
        </mxCell>
        <mxCell id="SG_bVTKXQQuI8ltkkn3w-58" value="(Weight &amp;gt;= 45)" style="rhombus;whiteSpace=wrap;html=1;strokeWidth=2;" vertex="1" parent="1">
          <mxGeometry x="130.56" y="480" width="125" height="102.5" as="geometry" />
        </mxCell>
        <mxCell id="SG_bVTKXQQuI8ltkkn3w-59" value="" style="edgeStyle=orthogonalEdgeStyle;rounded=0;orthogonalLoop=1;jettySize=auto;html=1;" edge="1" parent="1" source="SG_bVTKXQQuI8ltkkn3w-60" target="SG_bVTKXQQuI8ltkkn3w-65">
          <mxGeometry relative="1" as="geometry" />
        </mxCell>
        <mxCell id="SG_bVTKXQQuI8ltkkn3w-60" value="SizeL = SizeL + 1" style="whiteSpace=wrap;html=1;strokeWidth=2;" vertex="1" parent="1">
          <mxGeometry x="133.06" y="650" width="120" height="60" as="geometry" />
        </mxCell>
        <mxCell id="SG_bVTKXQQuI8ltkkn3w-64" style="edgeStyle=orthogonalEdgeStyle;rounded=0;orthogonalLoop=1;jettySize=auto;html=1;entryX=0.5;entryY=0;entryDx=0;entryDy=0;" edge="1" parent="1" source="SG_bVTKXQQuI8ltkkn3w-65" target="SG_bVTKXQQuI8ltkkn3w-83">
          <mxGeometry relative="1" as="geometry" />
        </mxCell>
        <mxCell id="SG_bVTKXQQuI8ltkkn3w-65" value="print &quot;SizeL&quot;" style="shape=parallelogram;perimeter=parallelogramPerimeter;whiteSpace=wrap;html=1;fixedSize=1;strokeWidth=2;" vertex="1" parent="1">
          <mxGeometry x="133.06" y="770" width="120" height="60" as="geometry" />
        </mxCell>
        <mxCell id="SG_bVTKXQQuI8ltkkn3w-66" value="" style="edgeStyle=orthogonalEdgeStyle;rounded=0;orthogonalLoop=1;jettySize=auto;html=1;" edge="1" parent="1" source="SG_bVTKXQQuI8ltkkn3w-70" target="SG_bVTKXQQuI8ltkkn3w-72">
          <mxGeometry relative="1" as="geometry" />
        </mxCell>
        <mxCell id="SG_bVTKXQQuI8ltkkn3w-67" value="T" style="edgeLabel;html=1;align=center;verticalAlign=middle;resizable=0;points=[];" vertex="1" connectable="0" parent="SG_bVTKXQQuI8ltkkn3w-66">
          <mxGeometry x="-0.4691" y="1" relative="1" as="geometry">
            <mxPoint as="offset" />
          </mxGeometry>
        </mxCell>
        <mxCell id="SG_bVTKXQQuI8ltkkn3w-68" value="" style="edgeStyle=orthogonalEdgeStyle;rounded=0;orthogonalLoop=1;jettySize=auto;html=1;" edge="1" parent="1" source="SG_bVTKXQQuI8ltkkn3w-70" target="SG_bVTKXQQuI8ltkkn3w-76">
          <mxGeometry relative="1" as="geometry" />
        </mxCell>
        <mxCell id="SG_bVTKXQQuI8ltkkn3w-69" value="F" style="edgeLabel;html=1;align=center;verticalAlign=middle;resizable=0;points=[];" vertex="1" connectable="0" parent="SG_bVTKXQQuI8ltkkn3w-68">
          <mxGeometry x="-0.3496" y="-2" relative="1" as="geometry">
            <mxPoint as="offset" />
          </mxGeometry>
        </mxCell>
        <mxCell id="SG_bVTKXQQuI8ltkkn3w-70" value="(Weight &amp;gt;= 30)" style="rhombus;whiteSpace=wrap;html=1;strokeWidth=2;" vertex="1" parent="1">
          <mxGeometry x="349" y="481.88" width="130.94" height="98.75" as="geometry" />
        </mxCell>
        <mxCell id="SG_bVTKXQQuI8ltkkn3w-71" value="" style="edgeStyle=orthogonalEdgeStyle;rounded=0;orthogonalLoop=1;jettySize=auto;html=1;" edge="1" parent="1" source="SG_bVTKXQQuI8ltkkn3w-72" target="SG_bVTKXQQuI8ltkkn3w-74">
          <mxGeometry relative="1" as="geometry" />
        </mxCell>
        <mxCell id="SG_bVTKXQQuI8ltkkn3w-72" value="SizeM = SizeM + 1" style="whiteSpace=wrap;html=1;strokeWidth=2;" vertex="1" parent="1">
          <mxGeometry x="352.21000000000004" y="680.01" width="124.53" height="50" as="geometry" />
        </mxCell>
        <mxCell id="SG_bVTKXQQuI8ltkkn3w-102" style="edgeStyle=orthogonalEdgeStyle;rounded=0;orthogonalLoop=1;jettySize=auto;html=1;entryX=1;entryY=0.5;entryDx=0;entryDy=0;" edge="1" parent="1" source="SG_bVTKXQQuI8ltkkn3w-74" target="SG_bVTKXQQuI8ltkkn3w-83">
          <mxGeometry relative="1" as="geometry">
            <mxPoint x="414" y="920" as="targetPoint" />
            <Array as="points">
              <mxPoint x="415" y="910" />
              <mxPoint x="415" y="910" />
              <mxPoint x="415" y="920" />
            </Array>
          </mxGeometry>
        </mxCell>
        <mxCell id="SG_bVTKXQQuI8ltkkn3w-74" value="print &quot;SizeM&quot;" style="shape=parallelogram;perimeter=parallelogramPerimeter;whiteSpace=wrap;html=1;fixedSize=1;strokeWidth=2;" vertex="1" parent="1">
          <mxGeometry x="354.475" y="805.01" width="120" height="60" as="geometry" />
        </mxCell>
        <mxCell id="SG_bVTKXQQuI8ltkkn3w-75" value="" style="edgeStyle=orthogonalEdgeStyle;rounded=0;orthogonalLoop=1;jettySize=auto;html=1;" edge="1" parent="1" source="SG_bVTKXQQuI8ltkkn3w-76" target="SG_bVTKXQQuI8ltkkn3w-78">
          <mxGeometry relative="1" as="geometry" />
        </mxCell>
        <mxCell id="SG_bVTKXQQuI8ltkkn3w-76" value="SizeS = SizeS + 1" style="whiteSpace=wrap;html=1;strokeWidth=2;" vertex="1" parent="1">
          <mxGeometry x="565.4100000000001" y="501.255" width="120" height="60" as="geometry" />
        </mxCell>
        <mxCell id="SG_bVTKXQQuI8ltkkn3w-103" style="edgeStyle=orthogonalEdgeStyle;rounded=0;orthogonalLoop=1;jettySize=auto;html=1;" edge="1" parent="1">
          <mxGeometry relative="1" as="geometry">
            <mxPoint x="410" y="920" as="targetPoint" />
            <mxPoint x="629.5693103448277" y="701.2550000000001" as="sourcePoint" />
            <Array as="points">
              <mxPoint x="630" y="821" />
              <mxPoint x="630" y="821" />
              <mxPoint x="630" y="920" />
            </Array>
          </mxGeometry>
        </mxCell>
        <mxCell id="SG_bVTKXQQuI8ltkkn3w-78" value="print &quot;SizeS&quot;" style="shape=parallelogram;perimeter=parallelogramPerimeter;whiteSpace=wrap;html=1;fixedSize=1;strokeWidth=2;" vertex="1" parent="1">
          <mxGeometry x="565.4100000000001" y="641.255" width="120" height="60" as="geometry" />
        </mxCell>
        <mxCell id="SG_bVTKXQQuI8ltkkn3w-79" style="edgeStyle=orthogonalEdgeStyle;rounded=0;orthogonalLoop=1;jettySize=auto;html=1;" edge="1" parent="1" source="SG_bVTKXQQuI8ltkkn3w-80" target="SG_bVTKXQQuI8ltkkn3w-53">
          <mxGeometry relative="1" as="geometry">
            <mxPoint x="29" y="360" as="targetPoint" />
            <Array as="points">
              <mxPoint x="30" y="990" />
              <mxPoint x="30" y="360" />
            </Array>
          </mxGeometry>
        </mxCell>
        <mxCell id="SG_bVTKXQQuI8ltkkn3w-80" value="read Wegith" style="shape=parallelogram;html=1;strokeWidth=2;perimeter=parallelogramPerimeter;whiteSpace=wrap;rounded=1;arcSize=12;size=0.23;" vertex="1" parent="1">
          <mxGeometry x="133.06" y="960" width="100" height="60" as="geometry" />
        </mxCell>
        <mxCell id="SG_bVTKXQQuI8ltkkn3w-81" style="edgeStyle=orthogonalEdgeStyle;rounded=0;orthogonalLoop=1;jettySize=auto;html=1;exitX=0.5;exitY=1;exitDx=0;exitDy=0;" edge="1" parent="1" source="SG_bVTKXQQuI8ltkkn3w-80" target="SG_bVTKXQQuI8ltkkn3w-80">
          <mxGeometry relative="1" as="geometry" />
        </mxCell>
        <mxCell id="SG_bVTKXQQuI8ltkkn3w-82" value="" style="edgeStyle=orthogonalEdgeStyle;rounded=0;orthogonalLoop=1;jettySize=auto;html=1;" edge="1" parent="1" source="SG_bVTKXQQuI8ltkkn3w-83" target="SG_bVTKXQQuI8ltkkn3w-80">
          <mxGeometry relative="1" as="geometry">
            <Array as="points">
              <mxPoint x="193" y="950" />
              <mxPoint x="193" y="950" />
            </Array>
          </mxGeometry>
        </mxCell>
        <mxCell id="SG_bVTKXQQuI8ltkkn3w-83" value="" style="ellipse;whiteSpace=wrap;html=1;aspect=fixed;" vertex="1" parent="1">
          <mxGeometry x="183.06000000000006" y="910" width="20" height="20" as="geometry" />
        </mxCell>
        <mxCell id="SG_bVTKXQQuI8ltkkn3w-84" style="edgeStyle=orthogonalEdgeStyle;rounded=0;orthogonalLoop=1;jettySize=auto;html=1;exitX=0.5;exitY=1;exitDx=0;exitDy=0;" edge="1" parent="1" source="SG_bVTKXQQuI8ltkkn3w-83" target="SG_bVTKXQQuI8ltkkn3w-83">
          <mxGeometry relative="1" as="geometry" />
        </mxCell>
        <mxCell id="SG_bVTKXQQuI8ltkkn3w-98" style="edgeStyle=orthogonalEdgeStyle;rounded=0;orthogonalLoop=1;jettySize=auto;html=1;entryX=0.5;entryY=0;entryDx=0;entryDy=0;" edge="1" parent="1" source="SG_bVTKXQQuI8ltkkn3w-85" target="SG_bVTKXQQuI8ltkkn3w-93">
          <mxGeometry relative="1" as="geometry">
            <mxPoint x="690" y="330" as="targetPoint" />
            <Array as="points">
              <mxPoint x="680" y="269" />
            </Array>
          </mxGeometry>
        </mxCell>
        <mxCell id="SG_bVTKXQQuI8ltkkn3w-85" value="TotalPrice = SizeS * 3.25 + SizeM * 4 + SizeL * 4.50" style="whiteSpace=wrap;html=1;strokeWidth=2;" vertex="1" parent="1">
          <mxGeometry x="340" y="240" width="304.5" height="57" as="geometry" />
        </mxCell>
        <mxCell id="SG_bVTKXQQuI8ltkkn3w-101" value="" style="edgeStyle=orthogonalEdgeStyle;rounded=0;orthogonalLoop=1;jettySize=auto;html=1;" edge="1" parent="1" source="SG_bVTKXQQuI8ltkkn3w-93" target="SG_bVTKXQQuI8ltkkn3w-100">
          <mxGeometry relative="1" as="geometry" />
        </mxCell>
        <mxCell id="SG_bVTKXQQuI8ltkkn3w-93" value="print TotalPrice , SizeS , SizeM , SizeL" style="shape=parallelogram;perimeter=parallelogramPerimeter;whiteSpace=wrap;html=1;fixedSize=1;strokeWidth=2;" vertex="1" parent="1">
          <mxGeometry x="560" y="333" width="240" height="60" as="geometry" />
        </mxCell>
        <mxCell id="SG_bVTKXQQuI8ltkkn3w-100" value="STOP" style="strokeWidth=2;html=1;shape=mxgraph.flowchart.terminator;whiteSpace=wrap;" vertex="1" parent="1">
          <mxGeometry x="630" y="420" width="100" height="60" as="geometry" />
        </mxCell>
      </root>
    </mxGraphModel>
  </diagram>
</mxfile>
